<mxfile host="app.diagrams.net" agent="Mozilla/5.0 (Windows NT 10.0; Win64; x64) AppleWebKit/537.36 (KHTML, like Gecko) Chrome/138.0.0.0 Safari/537.36 Edg/138.0.0.0" version="28.0.5">
  <diagram name="PÃ¡gina-1" id="GaKZNHGlAN73U_5XXHMx">
    <mxGraphModel dx="1344" dy="786" grid="1" gridSize="10" guides="1" tooltips="1" connect="1" arrows="1" fold="1" page="1" pageScale="1" pageWidth="1169" pageHeight="827" math="0" shadow="0">
      <root>
        <mxCell id="0" />
        <mxCell id="1" parent="0" />
        <mxCell id="gINzZaWmVPl8_k8qFtEF-1" value="" style="image;aspect=fixed;html=1;points=[];align=center;fontSize=12;image=img/lib/azure2/integration/Integration_Service_Environments.svg;" vertex="1" parent="1">
          <mxGeometry x="480" y="140" width="98" height="98" as="geometry" />
        </mxCell>
        <mxCell id="gINzZaWmVPl8_k8qFtEF-2" value="" style="image;aspect=fixed;html=1;points=[];align=center;fontSize=12;image=img/lib/azure2/integration/SQL_Data_Warehouses.svg;" vertex="1" parent="1">
          <mxGeometry x="120" y="414" width="93.54" height="95" as="geometry" />
        </mxCell>
        <mxCell id="gINzZaWmVPl8_k8qFtEF-3" value="" style="image;sketch=0;aspect=fixed;html=1;points=[];align=center;fontSize=12;image=img/lib/mscae/CustomDomain.svg;" vertex="1" parent="1">
          <mxGeometry x="990" y="159.6" width="93.33" height="78.4" as="geometry" />
        </mxCell>
        <mxCell id="gINzZaWmVPl8_k8qFtEF-4" value="" style="image;sketch=0;aspect=fixed;html=1;points=[];align=center;fontSize=12;image=img/lib/mscae/Exchange_On_premises_Access.svg;" vertex="1" parent="1">
          <mxGeometry x="40" y="136.97" width="58.6" height="101.03" as="geometry" />
        </mxCell>
        <mxCell id="gINzZaWmVPl8_k8qFtEF-5" value="" style="image;sketch=0;aspect=fixed;html=1;points=[];align=center;fontSize=12;image=img/lib/mscae/API_Management.svg;" vertex="1" parent="1">
          <mxGeometry x="310" y="270" width="119.05" height="100" as="geometry" />
        </mxCell>
        <mxCell id="gINzZaWmVPl8_k8qFtEF-6" value="" style="image;sketch=0;aspect=fixed;html=1;points=[];align=center;fontSize=12;image=img/lib/mscae/Software_as_a_Service.svg;" vertex="1" parent="1">
          <mxGeometry x="120" y="130" width="110" height="110" as="geometry" />
        </mxCell>
      </root>
    </mxGraphModel>
  </diagram>
</mxfile>
